<svg version="1.1" id="Layer_1" xmlns="http://www.w3.org/2000/svg" xmlns:xlink="http://www.w3.org/1999/xlink" x="0px" y="0px"
	 width="90%" viewBox="0 0 533 533" enable-background="new 0 0 533 533" xml:space="preserve">
<path fill="#a03583" opacity="1.000000" stroke="#000000" stroke-linecap="round" stroke-linejoin="round" stroke-width="5.000000"
	d="
M246.500000,464.000000 
	C260.614166,463.696564 269.265076,455.960602 274.514557,443.506134 
	C276.762817,438.172058 277.966553,432.536804 279.479523,426.994415 
	C286.027374,403.007477 292.534790,379.009338 298.981537,354.995056 
	C301.313751,346.307465 306.441803,340.489258 315.513763,339.089142 
	C319.934204,338.406952 324.506104,338.427521 328.998932,338.541931 
	C347.318359,339.008453 365.097656,336.054962 382.500488,330.501526 
	C399.583862,325.049988 415.209045,316.807678 429.500702,306.000916 
	C452.407715,288.679565 469.588104,266.914825 481.063690,240.527695 
	C487.422424,225.906342 491.740692,210.867142 493.557953,195.006638 
	C496.207336,171.884003 494.642975,149.201035 487.485291,127.004745 
	C480.816711,106.325310 470.476624,87.704536 456.552338,70.956490 
	C440.877563,52.103012 421.431946,38.305191 399.439301,28.131195 
	C385.236084,21.560648 370.156189,17.440683 354.509766,15.424198 
	C340.534515,13.623087 326.537933,13.476322 312.500000,13.482626 
	C232.666687,13.518476 152.833038,13.386576 73.000244,13.594118 
	C56.710300,13.636467 45.070503,22.710577 42.139332,37.028522 
	C38.768692,53.493153 45.283382,67.304893 64.037506,72.360870 
	C70.776810,74.177734 77.900238,74.555832 85.000046,74.549164 
	C166.999969,74.472137 249.003387,74.058533 330.998566,74.687531 
	C371.580139,74.998840 402.470856,93.036308 422.085968,129.453705 
	C433.755585,151.119568 436.578674,173.995819 431.277283,197.449661 
	C424.981659,225.302368 409.706268,247.190109 384.591949,262.154297 
	C366.342773,273.027924 346.848907,277.447266 325.999969,277.492676 
	C309.333405,277.528961 292.666229,277.424835 276.000122,277.521362 
	C259.628906,277.616150 254.548004,283.939423 251.487473,295.496674 
	C244.025879,323.673523 236.488083,351.830170 229.004776,380.001282 
	C224.977844,395.160767 221.085770,410.356628 216.978012,425.494019 
	C211.977921,443.919830 221.007263,457.872101 239.019211,463.437836 
	C240.540619,463.907928 242.334610,463.540558 243.999619,463.487762 
	C245.451965,463.441711 246.776505,463.446045 246.500000,465.500000 
"/>
<path fill="#5730b4" opacity="1.000000" stroke="#000000" stroke-linecap="round" stroke-linejoin="round" stroke-width="4.000000"
	d="
M363.500000,176.000000 
	C362.887512,164.802078 358.134003,155.892624 348.462311,150.062500 
	C343.325134,146.965805 337.555389,145.218506 331.499084,145.029556 
	C319.003815,144.639786 306.471039,144.517136 294.003021,144.703140 
	C254.832260,145.287445 215.666428,144.831924 176.499832,144.936432 
	C158.105270,144.985519 152.691528,152.522095 148.697037,166.556076 
	C139.734726,198.043732 131.880112,229.845734 123.485062,261.496033 
	C116.892914,286.349152 110.153381,311.163086 103.503258,336.000885 
	C94.490211,369.664032 85.484749,403.329285 76.506927,437.001831 
	C72.466080,452.157623 67.992889,467.221771 64.625580,482.527618 
	C60.200142,502.643158 68.990410,517.955994 90.070267,522.686890 
	C102.064392,525.378723 111.853714,519.086304 119.068588,509.049316 
	C122.182045,504.718048 124.118752,500.005890 125.477936,494.994019 
	C132.525375,469.006897 139.518570,443.004974 146.495010,416.998657 
	C154.183517,388.337860 161.826340,359.664795 169.501877,331.000488 
	C178.160461,298.665009 186.806732,266.326172 195.520767,234.005600 
	C197.430069,226.923950 199.631622,220.004730 204.947479,214.449738 
	C209.137650,210.071075 214.545380,208.093140 220.013901,207.687500 
	C231.801987,206.813095 243.654205,206.660507 255.505554,207.412460 
	C260.972961,207.759354 266.505615,206.921829 271.998901,207.047928 
	C285.998627,207.369324 299.997345,206.721664 314.005524,207.382690 
	C321.140564,207.719391 328.433105,207.473465 335.480530,206.375153 
	C353.694336,203.536606 361.590729,192.601974 363.500000,176.500000 
"/>
</svg>