<svg version="1.1" id="Layer_1" xmlns="http://www.w3.org/2000/svg" xmlns:xlink="http://www.w3.org/1999/xlink" x="0px" y="0px"
	 width="100%" viewBox="0 0 1000 1000" enable-background="new 0 0 1000 1000" xml:space="preserve">
<path fill="#000000" opacity="1.000000" stroke="none" 
	d="
M686.000000,1001.000000 
	C457.333344,1001.000000 229.166672,1001.000000 1.000000,1001.000000 
	C1.000000,667.666687 1.000000,334.333344 1.000000,1.000000 
	C334.333344,1.000000 667.666687,1.000000 1001.000000,1.000000 
	C1001.000000,334.333344 1001.000000,667.666687 1001.000000,1001.000000 
	C896.166687,1001.000000 791.333313,1001.000000 686.000000,1001.000000 
M478.250061,542.763000 
	C478.130951,543.418091 478.056976,544.085205 477.886261,544.726562 
	C468.098480,581.495728 458.240784,618.246460 448.579163,655.048706 
	C447.242310,660.140869 445.689972,665.617920 446.253967,670.692627 
	C448.953766,694.985046 474.188293,704.588257 492.023224,696.889404 
	C502.747528,692.259949 508.613251,683.065552 511.603455,672.332214 
	C519.316956,644.644165 526.558289,616.824341 533.968079,589.051819 
	C536.852112,578.241882 541.929565,574.215332 553.143188,573.991882 
	C555.642212,573.942078 558.157166,574.156677 560.640625,573.953796 
	C573.188782,572.928528 585.980652,573.021057 598.224060,570.485840 
	C633.029968,563.278748 662.685059,546.541321 686.662354,519.933411 
	C698.801880,506.461975 708.609375,491.639679 715.979736,475.090668 
	C729.191284,445.426147 733.240540,414.589569 728.083618,382.576477 
	C721.424072,341.235504 701.585449,307.222839 669.196472,281.021698 
	C638.975830,256.574585 603.713928,244.363861 564.947144,244.157379 
	C479.783569,243.703796 394.615906,244.002136 309.449951,244.062973 
	C305.490875,244.065796 301.447510,244.348663 297.589020,245.178345 
	C285.131531,247.857086 276.613617,255.533112 273.234863,267.650940 
	C269.814728,279.917114 271.690582,291.475647 281.962250,300.417114 
	C291.261505,308.512146 302.774414,309.852814 314.258575,309.880493 
	C394.757477,310.074432 475.257080,309.958038 555.756348,310.025909 
	C563.052063,310.032074 570.394836,310.216644 577.634277,311.037323 
	C607.726868,314.448700 631.161072,329.253082 647.945923,354.145782 
	C662.320068,375.463257 666.997681,399.273132 662.990112,424.637543 
	C658.947510,450.223511 646.580872,471.092438 626.084534,486.919312 
	C607.102112,501.577209 585.349243,508.125244 561.461914,508.031189 
	C543.129028,507.958984 524.795288,507.950806 506.462524,508.040833 
	C494.136475,508.101379 486.836487,513.469482 483.149109,525.168457 
	C481.402191,530.710938 480.051788,536.378479 478.250061,542.763000 
M294.247498,727.178833 
	C294.488129,728.144836 294.832550,729.098083 294.953796,730.078857 
	C296.702026,744.221863 310.888672,757.281189 325.294617,757.976196 
	C339.451477,758.659180 353.782990,749.113586 358.011993,734.936523 
	C363.899506,715.199585 369.007660,695.228760 374.358826,675.333618 
	C387.650818,625.915344 400.867462,576.476685 414.163727,527.059509 
	C420.121429,504.917084 425.925568,482.727539 432.320374,460.710693 
	C436.242737,447.206207 444.118164,441.988251 458.264587,441.985138 
	C490.263947,441.978088 522.263428,442.030762 554.262573,441.936768 
	C559.724609,441.920715 565.220520,441.582153 570.639526,440.903473 
	C588.774109,438.632233 601.624329,419.947113 597.509460,402.103821 
	C593.924988,386.560547 580.068481,376.047058 562.857178,376.032654 
	C511.524872,375.989655 460.192505,376.015564 408.860168,376.018036 
	C392.749237,376.018799 384.325287,382.547546 380.165253,398.107727 
	C370.209412,435.346710 360.172638,472.564178 350.250031,509.812012 
	C334.938446,567.289307 319.610016,624.762451 304.481659,682.288025 
	C300.646454,696.871399 297.540283,711.646484 294.247498,727.178833 
z"/>
<path fill="#0D0F1F" opacity="1.000000" stroke="none" 
	d="
M478.385895,542.376160 
	C480.051788,536.378479 481.402191,530.710938 483.149109,525.168457 
	C486.836487,513.469482 494.136475,508.101379 506.462524,508.040833 
	C524.795288,507.950806 543.129028,507.958984 561.461914,508.031189 
	C585.349243,508.125244 607.102112,501.577209 626.084534,486.919312 
	C646.580872,471.092438 658.947510,450.223511 662.990112,424.637543 
	C666.997681,399.273132 662.320068,375.463257 647.945923,354.145782 
	C631.161072,329.253082 607.726868,314.448700 577.634277,311.037323 
	C570.394836,310.216644 563.052063,310.032074 555.756348,310.025909 
	C475.257080,309.958038 394.757477,310.074432 314.258575,309.880493 
	C302.774414,309.852814 291.261505,308.512146 281.962250,300.417114 
	C271.690582,291.475647 269.814728,279.917114 273.234863,267.650940 
	C276.613617,255.533112 285.131531,247.857086 297.589020,245.178345 
	C301.447510,244.348663 305.490875,244.065796 309.449951,244.062973 
	C394.615906,244.002136 479.783569,243.703796 564.947144,244.157379 
	C603.713928,244.363861 638.975830,256.574585 669.196472,281.021698 
	C701.585449,307.222839 721.424072,341.235504 728.083618,382.576477 
	C733.240540,414.589569 729.191284,445.426147 715.979736,475.090668 
	C708.609375,491.639679 698.801880,506.461975 686.662354,519.933411 
	C662.685059,546.541321 633.029968,563.278748 598.224060,570.485840 
	C585.980652,573.021057 573.188782,572.928528 560.640625,573.953796 
	C558.157166,574.156677 555.642212,573.942078 553.143188,573.991882 
	C541.929565,574.215332 536.852112,578.241882 533.968079,589.051819 
	C526.558289,616.824341 519.316956,644.644165 511.603455,672.332214 
	C508.613251,683.065552 502.747528,692.259949 492.023224,696.889404 
	C474.188293,704.588257 448.953766,694.985046 446.253967,670.692627 
	C445.689972,665.617920 447.242310,660.140869 448.579163,655.048706 
	C458.240784,618.246460 468.098480,581.495728 477.886261,544.726562 
	C478.056976,544.085205 478.130951,543.418091 478.385895,542.376160 
M508.500610,248.835999 
	C486.534058,248.783173 464.567505,248.689743 442.600952,248.686172 
	C399.464874,248.679169 356.328705,248.680954 313.192902,248.800644 
	C308.237732,248.814392 303.202332,249.175446 298.347260,250.115158 
	C286.888367,252.333069 278.452148,261.604614 276.978241,272.945038 
	C275.430908,284.850433 280.392639,296.084442 290.789581,300.271637 
	C297.693420,303.052032 305.524933,304.698090 312.965088,304.784088 
	C354.906555,305.268890 396.855225,305.139679 438.801483,305.195038 
	C467.954041,305.233490 497.107178,305.134705 526.259094,305.284943 
	C543.900635,305.375885 561.682922,304.517883 579.147156,306.422607 
	C604.796509,309.220032 626.459534,321.214935 643.383118,340.900085 
	C664.522522,365.489075 673.444336,394.227722 667.603333,426.054749 
	C658.014526,478.303375 614.473633,513.074524 561.366638,512.753418 
	C544.047668,512.648682 526.726440,512.730286 509.407593,512.882751 
	C495.659698,513.003723 490.370514,516.682129 486.793549,529.837219 
	C476.030579,569.420044 465.542206,609.078003 455.066803,648.738281 
	C453.425171,654.953613 451.630188,661.287903 451.252869,667.647034 
	C450.220856,685.039246 468.774170,698.276733 486.711060,693.407104 
	C498.138275,690.304810 503.698395,681.642029 506.822418,671.231995 
	C510.860962,657.774414 514.232056,644.117737 517.978882,630.571167 
	C522.212341,615.265259 526.394043,599.942078 530.893860,584.713867 
	C533.264954,576.689575 539.249084,572.018677 547.207153,570.250610 
	C551.055603,569.395447 555.154846,569.445618 559.139099,569.460815 
	C585.921143,569.562988 611.536621,564.591919 635.741516,552.744263 
	C695.678406,523.406921 733.116943,457.098480 724.151855,388.532593 
	C718.806458,347.650940 700.492310,313.552155 668.967468,286.953156 
	C642.155396,264.330475 611.031311,251.586151 575.896851,249.946396 
	C553.795593,248.914932 531.634888,249.157196 508.500610,248.835999 
z"/>
<path fill="#0D0F1F" opacity="1.000000" stroke="none" 
	d="
M294.173309,726.756104 
	C297.540283,711.646484 300.646454,696.871399 304.481659,682.288025 
	C319.610016,624.762451 334.938446,567.289307 350.250031,509.812012 
	C360.172638,472.564178 370.209412,435.346710 380.165253,398.107727 
	C384.325287,382.547546 392.749237,376.018799 408.860168,376.018036 
	C460.192505,376.015564 511.524872,375.989655 562.857178,376.032654 
	C580.068481,376.047058 593.924988,386.560547 597.509460,402.103821 
	C601.624329,419.947113 588.774109,438.632233 570.639526,440.903473 
	C565.220520,441.582153 559.724609,441.920715 554.262573,441.936768 
	C522.263428,442.030762 490.263947,441.978088 458.264587,441.985138 
	C444.118164,441.988251 436.242737,447.206207 432.320374,460.710693 
	C425.925568,482.727539 420.121429,504.917084 414.163727,527.059509 
	C400.867462,576.476685 387.650818,625.915344 374.358826,675.333618 
	C369.007660,695.228760 363.899506,715.199585 358.011993,734.936523 
	C353.782990,749.113586 339.451477,758.659180 325.294617,757.976196 
	C310.888672,757.281189 296.702026,744.221863 294.953796,730.078857 
	C294.832550,729.098083 294.488129,728.144836 294.173309,726.756104 
M332.856201,590.336060 
	C323.240936,626.254333 313.445312,662.125916 304.129852,698.121826 
	C301.620758,707.817200 299.367889,717.860168 299.121613,727.796204 
	C298.716431,744.142395 318.392578,757.788513 334.074036,753.002747 
	C347.023895,749.050598 353.384338,739.058838 356.868195,726.902100 
	C361.008179,712.455688 364.744232,697.893372 368.629059,683.374207 
	C381.746307,634.349731 394.830902,585.316406 407.970703,536.297974 
	C414.557922,511.724091 421.101471,487.137054 427.936005,462.631592 
	C431.120178,451.214691 437.190399,442.023010 449.890503,439.567749 
	C454.110779,438.751892 458.468628,438.284943 462.764252,438.280334 
	C491.058685,438.249969 519.353638,438.494720 547.647583,438.403839 
	C555.269104,438.379303 562.944519,437.930359 570.495483,436.926300 
	C584.612122,435.049194 595.255188,421.313080 594.118591,407.137604 
	C592.858398,391.421082 579.574524,379.913605 562.330444,379.728149 
	C550.008789,379.595612 537.685608,379.559265 525.363098,379.565796 
	C486.237091,379.586517 447.110657,379.562714 407.985321,379.751923 
	C398.122803,379.799622 390.252899,383.810089 386.163177,393.383575 
	C384.935242,396.257965 383.839233,399.221558 383.031403,402.237671 
	C366.312836,464.656647 349.644562,527.089111 332.856201,590.336060 
z"/>
<path fill="#E8F8F8" opacity="1.000000" stroke="none" 
	d="
M509.000732,248.832031 
	C531.634888,249.157196 553.795593,248.914932 575.896851,249.946396 
	C611.031311,251.586151 642.155396,264.330475 668.967468,286.953156 
	C700.492310,313.552155 718.806458,347.650940 724.151855,388.532593 
	C733.116943,457.098480 695.678406,523.406921 635.741516,552.744263 
	C611.536621,564.591919 585.921143,569.562988 559.139099,569.460815 
	C555.154846,569.445618 551.055603,569.395447 547.207153,570.250610 
	C539.249084,572.018677 533.264954,576.689575 530.893860,584.713867 
	C526.394043,599.942078 522.212341,615.265259 517.978882,630.571167 
	C514.232056,644.117737 510.860962,657.774414 506.822418,671.231995 
	C503.698395,681.642029 498.138275,690.304810 486.711060,693.407104 
	C468.774170,698.276733 450.220856,685.039246 451.252869,667.647034 
	C451.630188,661.287903 453.425171,654.953613 455.066803,648.738281 
	C465.542206,609.078003 476.030579,569.420044 486.793549,529.837219 
	C490.370514,516.682129 495.659698,513.003723 509.407593,512.882751 
	C526.726440,512.730286 544.047668,512.648682 561.366638,512.753418 
	C614.473633,513.074524 658.014526,478.303375 667.603333,426.054749 
	C673.444336,394.227722 664.522522,365.489075 643.383118,340.900085 
	C626.459534,321.214935 604.796509,309.220032 579.147156,306.422607 
	C561.682922,304.517883 543.900635,305.375885 526.259094,305.284943 
	C497.107178,305.134705 467.954041,305.233490 438.801483,305.195038 
	C396.855225,305.139679 354.906555,305.268890 312.965088,304.784088 
	C305.524933,304.698090 297.693420,303.052032 290.789581,300.271637 
	C280.392639,296.084442 275.430908,284.850433 276.978241,272.945038 
	C278.452148,261.604614 286.888367,252.333069 298.347260,250.115158 
	C303.202332,249.175446 308.237732,248.814392 313.192902,248.800644 
	C356.328705,248.680954 399.464874,248.679169 442.600952,248.686172 
	C464.567505,248.689743 486.534058,248.783173 509.000732,248.832031 
z"/>
<path fill="#E8F8F8" opacity="1.000000" stroke="none" 
	d="
M332.911255,589.927490 
	C349.644562,527.089111 366.312836,464.656647 383.031403,402.237671 
	C383.839233,399.221558 384.935242,396.257965 386.163177,393.383575 
	C390.252899,383.810089 398.122803,379.799622 407.985321,379.751923 
	C447.110657,379.562714 486.237091,379.586517 525.363098,379.565796 
	C537.685608,379.559265 550.008789,379.595612 562.330444,379.728149 
	C579.574524,379.913605 592.858398,391.421082 594.118591,407.137604 
	C595.255188,421.313080 584.612122,435.049194 570.495483,436.926300 
	C562.944519,437.930359 555.269104,438.379303 547.647583,438.403839 
	C519.353638,438.494720 491.058685,438.249969 462.764252,438.280334 
	C458.468628,438.284943 454.110779,438.751892 449.890503,439.567749 
	C437.190399,442.023010 431.120178,451.214691 427.936005,462.631592 
	C421.101471,487.137054 414.557922,511.724091 407.970703,536.297974 
	C394.830902,585.316406 381.746307,634.349731 368.629059,683.374207 
	C364.744232,697.893372 361.008179,712.455688 356.868195,726.902100 
	C353.384338,739.058838 347.023895,749.050598 334.074036,753.002747 
	C318.392578,757.788513 298.716431,744.142395 299.121613,727.796204 
	C299.367889,717.860168 301.620758,707.817200 304.129852,698.121826 
	C313.445312,662.125916 323.240936,626.254333 332.911255,589.927490 
z"/>
</svg>